<svg xmlns="http://www.w3.org/2000/svg" width="1280" height="720" viewBox="0 0 1280 720">
<defs>
  <linearGradient id="bg" x1="0" y1="0" x2="1" y2="1"><stop offset="0%" stop-color="hsl(262,58%,20%)"/><stop offset="100%" stop-color="hsl(286,64%,11%)"/></linearGradient>
  <radialGradient id="glow" cx="70%" cy="30%" r="55%"><stop offset="0%" stop-color="rgba(90,210,255,.55)"/><stop offset="100%" stop-color="rgba(0,0,0,0)"/></radialGradient>
</defs>
<rect width="1280" height="720" fill="url(#bg)"/>
<rect width="1280" height="720" fill="url(#glow)"/>
<g opacity=".35" stroke="rgba(140,220,255,.35)"><line x1="0" y1="0" x2="1280" y2="0"/><line x1="0" y1="48" x2="1280" y2="48"/><line x1="0" y1="96" x2="1280" y2="96"/><line x1="0" y1="144" x2="1280" y2="144"/><line x1="0" y1="192" x2="1280" y2="192"/><line x1="0" y1="240" x2="1280" y2="240"/><line x1="0" y1="288" x2="1280" y2="288"/><line x1="0" y1="336" x2="1280" y2="336"/><line x1="0" y1="384" x2="1280" y2="384"/><line x1="0" y1="432" x2="1280" y2="432"/><line x1="0" y1="480" x2="1280" y2="480"/><line x1="0" y1="528" x2="1280" y2="528"/><line x1="0" y1="576" x2="1280" y2="576"/><line x1="0" y1="624" x2="1280" y2="624"/><line x1="0" y1="672" x2="1280" y2="672"/><line x1="0" y1="720" x2="1280" y2="720"/></g>
<g>
  <rect x="90" y="90" width="1100" height="540" rx="20" fill="rgba(8,35,58,.35)" stroke="rgba(0,212,255,.75)" stroke-width="3"/>
  <circle cx="320" cy="260" r="86" fill="rgba(255,255,255,.20)"/>
  <rect x="470" y="210" width="500" height="30" rx="15" fill="rgba(255,255,255,.28)"/>
  <rect x="470" y="262" width="420" height="22" rx="11" fill="rgba(255,255,255,.22)"/>
  <rect x="470" y="302" width="360" height="22" rx="11" fill="rgba(255,255,255,.16)"/>
  <rect x="220" y="410" width="840" height="140" rx="18" fill="rgba(255,255,255,.08)" stroke="rgba(0,212,255,.32)"/>
</g>
</svg>